:version 1.10
:name ASF
:units
  mass 1
  length 1
  angle deg
:documentation
  ASF file generated by Kaydara
:root
  axis xyz
  order  tx ty tz rx ry rz
  position 0 0 0
  orientation 0 0 0
:bonedata
  begin
    id 1
    name abdomenDummy
    direction 1 -1.27917e-005 -1.26829e-007
    length 1.79048
    axis 0 0 0 xyz
  end
  begin
    id 2
    name abdomen
    direction 0.987238 0.159249 -9.68575e-008
    length 8.61378
    axis 2.73208e-005 5.54953e-006 9.16328 xyz
    dof rx ry rz
  end
  begin
    id 3
    name chest
    direction 0 0 0
    length 0
    axis 2.65071e-005 8.63688e-006 2.59796 xyz
    dof rx ry rz
  end
  begin
    id 4
    name neckDummyDummy
    direction 0.998972 0.0453274 -1.50742e-007
    length 9.56202
    axis 2.65071e-005 8.63688e-006 2.59796 xyz
  end
  begin
    id 5
    name neckDummy
    direction 0.99977 0.0214525 -1.61748e-007
    length 1.93574
    axis 2.62932e-005 9.26758e-006 1.22924 xyz
    dof rx ry rz
  end
  begin
    id 6
    name neck
    direction 0.99928 -0.0379406 -1.88707e-007
    length 3.70367
    axis 2.56966e-005 1.08122e-005 -2.17436 xyz
    dof rx ry rz
  end
  begin
    id 7
    name head
    direction 0.992648 -0.121037 -2.25408e-007
    length 6.35158
    axis 2.47068e-005 1.29149e-005 -6.95196 xyz
    dof rx ry rz
  end
  begin
    id 8
    name figureHair
    direction -0.86681 -0.498639 -7.83376e-008
    length 8.29884
    axis -2.7515e-005 4.48842e-006 -150.09 xyz
    dof rx ry rz
  end
  begin
    id 9
    name lCollarDummy
    direction 0.994611 0.0451299 -0.0933417
    length 9.60395
    axis 2.65071e-005 8.63688e-006 2.59796 xyz
  end
  begin
    id 10
    name lCollar
    direction 0.0384146 0.00127577 -0.999261
    length 6.95318
    axis 90.4899 87.7973 1.90202 xyz
    dof rx ry rz
  end
  begin
    id 11
    name lShldr
    direction -0.030648 0.0920515 -0.995282
    length 9.61158
    axis -161.793 84.4324 108.415 xyz
    dof rx ry rz
  end
  begin
    id 12
    name lForeArm
    direction 0.000163956 -0.0977586 -0.99521
    length 8.6068
    axis 0.134773 84.3899 -89.8525 xyz
    dof rx ry rz
  end
  begin
    id 13
    name lHand
    direction -0.0190533 -0.1444 -0.989336
    length 7.61479
    axis -7.3729 81.6249 -97.517 xyz
    dof rx ry rz
  end
  begin
    id 14
    name rCollarDummy
    direction 0.994871 0.0442627 0.0909555
    length 9.60761
    axis 2.65071e-005 8.63688e-006 2.59796 xyz
  end
  begin
    id 15
    name rCollar
    direction 0.0334251 -4.74072e-007 0.999441
    length 6.97058
    axis -178.152 -88.0845 -0.000674207 xyz
    dof rx ry rz
  end
  begin
    id 16
    name rShldr
    direction -0.026922 0.0719509 0.997045
    length 9.60913
    axis 71.2822 -85.594 110.514 xyz
    dof rx ry rz
  end
  begin
    id 17
    name rForeArm
    direction 0.00134679 -0.118986 0.992895
    length 8.57176
    axis -88.7923 -83.1659 -89.3516 xyz
    dof rx ry rz
  end
  begin
    id 18
    name rHand
    direction -0.0185183 -0.0768601 0.99687
    length 7.69687
    axis -74.5596 -85.4655 -103.546 xyz
    dof rx ry rz
  end
  begin
    id 19
    name lThighDummy
    direction -0.236086 -0.0385456 -0.970967
    length 4.99155
    axis 0 0 0 xyz
  end
  begin
    id 20
    name lThigh
    direction -0.993968 0.0148998 -0.108653
    length 13.572
    axis -91.4001 6.23768 179.141 xyz
    dof rx ry rz
  end
  begin
    id 21
    name lShin
    direction -0.992341 0.0904576 -0.0841193
    length 18.5862
    axis -91.4558 4.82538 174.792 xyz
    dof rx ry rz
  end
  begin
    id 22
    name lFoot
    direction 0.0209381 -0.999771 -0.00453005
    length 8.44474
    axis 4.86759 0.259522 -88.8001 xyz
    dof rx ry rz
  end
  begin
    id 23
    name rThighDummy
    direction -0.236086 -0.0385456 0.970967
    length 4.99155
    axis 0 0 0 xyz
  end
  begin
    id 24
    name rThigh
    direction -0.993968 0.0148995 0.108653
    length 13.5721
    axis -89.7059 -6.2377 179.141 xyz
    dof rx ry rz
  end
  begin
    id 25
    name rShin
    direction -0.9925 0.0899962 0.0827255
    length 18.6716
    axis -89.2745 -4.74775 174.819 xyz
    dof rx ry rz
  end
  begin
    id 26
    name rFoot
    direction 0.0301721 -0.999545 9.70865e-005
    length 8.45013
    axis -2.50066e-005 -0.00555246 -88.271 xyz
    dof rx ry rz
  end
:hierarchy
  begin
    root abdomenDummy lThighDummy rThighDummy
    abdomenDummy abdomen
    abdomen chest
    chest neckDummyDummy lCollarDummy rCollarDummy
    neckDummyDummy neckDummy
    neckDummy neck
    neck head
    head figureHair
    lCollarDummy lCollar
    lCollar lShldr
    lShldr lForeArm
    lForeArm lHand
    rCollarDummy rCollar
    rCollar rShldr
    rShldr rForeArm
    rForeArm rHand
    lThighDummy lThigh
    lThigh lShin
    lShin lFoot
    rThighDummy rThigh
    rThigh rShin
    rShin rFoot
  end

:SAMPLES-PER-SECOND 25
:FULLY-SPECIFIED
:DEGREES
1282
root  0.525135 36.1461 -3.17046 178.677 -6.17949 73.8847
abdomen  3.11418 1.83436 13.3724
chest  1.80056 10.3575 -30.4572
neckDummy  9.09964e-021 0 8.72668e-016
neck  4.54186 -1.53444 -24.6434
head  4.3098 -6.92934 -1.08764
figureHair  0 1.51661e-021 -9.5315e-016
lCollar  -5.15695e-016 -6.42944e-016 -7.59357e-014
lShldr  56.5473 28.6769 -37.4668
lForeArm  -110.994 -68.9144 173.152
lHand  0.254698 0.195082 5.2986
rCollar  1.7976e-016 -5.12864e-014 1.62755e-015
rShldr  -86.5889 36.3807 -35.9643
rForeArm  -40.8566 -0.525471 103.595
rHand  -2.86626 -21.7778 18.0857
lThigh  -12.028 8.16815 8.06015
lShin  -5.01365 23.5268 2.00692
lFoot  0.100586 -0.0238532 10.5069
rThigh  10.6306 13.7817 5.6177
rShin  5.76347 13.0442 3.62184
rFoot  -4.42516 1.09278 4.47709
1283
root  0.413437 36.204 -2.41605 178.699 -4.68874 73.2239
abdomen  2.4007 -0.0125633 12.9487
chest  1.54603 10.6657 -30.5592
neckDummy  9.09964e-021 0 8.72668e-016
neck  4.16617 0.0285655 -23.9089
head  3.83215 -6.72529 -0.988175
figureHair  0 1.51661e-021 -9.5315e-016
lCollar  -5.15695e-016 -6.42944e-016 -7.59357e-014
lShldr  56.4174 28.6431 -37.5952
lForeArm  -110.822 -69.1644 173.08
lHand  0.254698 0.195082 5.2986
rCollar  1.7976e-016 -5.12864e-014 1.62755e-015
rShldr  -86.7453 35.9714 -36.2617
rForeArm  -41.1279 -0.540386 104.367
rHand  -2.73026 -21.3527 17.677
lThigh  -12.7478 10.3382 5.40142
lShin  -4.80885 21.3357 1.36915
lFoot  1.1099 -0.226231 10.01
rThigh  11.3778 14.1357 3.00505
rShin  4.4321 13.7859 2.62873
rFoot  -3.1961 0.905096 4.58125
1284
root  0.348555 36.2509 -1.61327 178.467 -3.11551 72.8875
abdomen  1.6361 -2.17869 12.5077
chest  1.29296 11.2443 -30.5366
neckDummy  9.09964e-021 0 8.72668e-016
neck  3.78955 1.92976 -22.7808
head  3.31865 -6.59572 -1.3147
figureHair  0 1.51661e-021 -9.5315e-016
lCollar  -5.15695e-016 -6.42944e-016 -7.59357e-014
lShldr  56.4175 28.5068 -37.6238
lForeArm  -110.667 -69.4206 173.005
lHand  0.254698 0.195082 5.2986
rCollar  1.7976e-016 -5.12864e-014 1.62755e-015
rShldr  -87.0863 35.6572 -36.805
rForeArm  -40.4739 -0.553729 105.065
rHand  -2.52886 -21.4272 16.6727
lThigh  -12.5404 12.3656 2.46289
lShin  -5.97976 18.7821 0.14478
lFoot  2.24602 -0.439921 9.2908
rThigh  11.9754 14.0163 0.200192
rShin  2.97694 14.5026 1.52273
rFoot  -1.86219 0.697348 4.67561
1285
root  0.337497 36.2796 -0.785145 177.936 -1.56131 72.9959
abdomen  0.837412 -4.58861 12.2542
chest  1.04844 11.8956 -30.3746
neckDummy  9.09964e-021 0 8.72668e-016
neck  3.52788 4.39658 -21.3689
head  2.8305 -6.63781 -1.96439
figureHair  0 1.51661e-021 -9.5315e-016
lCollar  -5.15695e-016 -6.42944e-016 -7.59357e-014
lShldr  56.374 28.3524 -37.6836
lForeArm  -110.533 -69.7471 172.906
lHand  0.254698 0.195082 5.2986
rCollar  1.7976e-016 -5.12864e-014 1.62755e-015
rShldr  -87.4789 35.2824 -37.2945
rForeArm  -40.2467 -0.565615 105.695
rHand  -2.37886 -21.3615 15.9854
lThigh  -11.1347 14.046 -0.629153
lShin  -8.70033 15.8345 -1.6138
lFoot  3.72514 -0.69957 8.4597
rThigh  12.4084 13.0634 -2.64599
rShin  1.40282 15.4488 0.286039
rFoot  -0.494702 0.483916 4.7881
1286
root  0.381359 36.2749 0.0389645 177.24 -0.0853729 73.4995
abdomen  0.015142 -6.96578 12.0602
chest  0.790994 12.3836 -30.0525
neckDummy  9.09964e-021 0 8.72668e-016
neck  3.43357 7.18799 -19.5284
head  2.40879 -6.60927 -2.91013
figureHair  0 1.51661e-021 -9.5315e-016
lCollar  -5.15695e-016 -6.42944e-016 -7.59357e-014
lShldr  56.2391 28.3184 -37.7958
lForeArm  -110.548 -70.1108 172.792
lHand  0.254698 0.195082 5.2986
rCollar  1.7976e-016 -5.12864e-014 1.62755e-015
rShldr  -87.8175 34.809 -37.6453
rForeArm  -40.9025 -0.576891 106.297
rHand  -2.31684 -20.9378 15.8883
lThigh  -9.12705 15.2369 -3.54402
lShin  -11.8828 12.709 -3.58507
lFoot  5.36391 -0.965876 7.62774
rThigh  12.6775 11.2702 -5.4488
rShin  -0.12702 16.7987 -0.939573
rFoot  0.82756 0.278959 4.94316
1287
root  0.491476 36.2291 0.836009 176.658 1.39508 74.209
abdomen  -0.803468 -9.01059 11.6025
chest  0.484137 12.6593 -29.506
neckDummy  9.09964e-021 0 8.72668e-016
neck  3.53217 9.90082 -17.0437
head  2.06963 -6.43296 -4.26866
figureHair  0 1.51661e-021 -9.5315e-016
lCollar  -5.15695e-016 -6.42944e-016 -7.59357e-014
lShldr  56.3176 28.3834 -37.8197
lForeArm  -110.664 -70.4492 172.683
lHand  0.254698 0.195082 5.2986
rCollar  1.7976e-016 -5.12864e-014 1.62755e-015
rShldr  -88.1209 34.4212 -37.9746
rForeArm  -41.0749 -0.585075 106.747
rHand  -2.27966 -20.8817 15.7337
lThigh  -7.35548 15.808 -6.20816
lShin  -14.459 9.88219 -5.33103
lFoot  6.852 -1.18404 6.82537
rThigh  12.6766 8.91882 -8.1995
rShin  -1.20454 18.4948 -2.00135
rFoot  2.08611 0.0868148 5.18241
1288
root  0.678307 36.1539 1.5969 176.156 2.93617 75.1917
abdomen  -1.56254 -10.7782 10.8977
chest  0.148205 12.9109 -28.7171
neckDummy  9.09964e-021 0 8.72668e-016
neck  3.84224 12.4981 -14.0239
head  1.7931 -6.24274 -5.9534
figureHair  0 1.51661e-021 -9.5315e-016
lCollar  -5.15695e-016 -6.42944e-016 -7.59357e-014
lShldr  56.7621 28.4445 -37.644
lForeArm  -110.737 -70.8148 172.56
lHand  0.254698 0.195082 5.2986
rCollar  1.7976e-016 -5.12864e-014 1.62755e-015
rShldr  -88.4252 34.1721 -38.41
rForeArm  -40.5549 -0.588984 106.987
rHand  -2.19926 -21.1351 15.2222
lThigh  -5.94791 15.6699 -8.81438
lShin  -16.5328 7.47226 -6.71699
lFoot  8.28241 -1.37266 6.03819
rThigh  11.9876 5.95608 -10.9175
rShin  -1.35737 20.549 -2.718
rFoot  3.2319 -0.0890357 5.46435
1289
root  0.929344 36.0557 2.31627 175.507 4.49838 76.5252
abdomen  -2.21141 -12.5479 10.1324
chest  -0.102142 13.3538 -27.7494
neckDummy  9.09964e-021 0 8.72668e-016
neck  4.36412 15.0962 -10.8577
head  1.5567 -6.06034 -7.53649
figureHair  0 1.51661e-021 -9.5315e-016
lCollar  -5.15695e-016 -6.42944e-016 -7.59357e-014
lShldr  57.206 28.5186 -37.3892
lForeArm  -110.798 -71.2232 172.418
lHand  0.254698 0.195082 5.2986
rCollar  1.7976e-016 -5.12864e-014 1.62755e-015
rShldr  -88.8087 33.9535 -39.0004
rForeArm  -40.7245 -0.590705 107.118
rHand  -2.10328 -20.9358 14.843
lThigh  -4.53988 14.9001 -11.411
lShin  -18.6553 5.17233 -7.87613
lFoot  9.83645 -1.56394 5.2768
rThigh  10.133 2.10896 -13.5567
rShin  -0.271121 23.1184 -2.82628
rFoot  4.13844 -0.231419 5.70187
1290
root  1.22309 35.936 2.97524 174.577 5.99234 78.0629
abdomen  -2.66324 -14.3401 9.12941
chest  -0.177578 14.0102 -26.6321
neckDummy  9.09964e-021 0 8.72668e-016
neck  5.08628 17.5729 -7.69747
head  1.37956 -5.90142 -8.91395
figureHair  0 1.51661e-021 -9.5315e-016
lCollar  -5.15695e-016 -6.42944e-016 -7.59357e-014
lShldr  57.2547 28.7231 -37.3369
lForeArm  -110.929 -71.6144 172.276
lHand  0.254698 0.195082 5.2986
rCollar  1.7976e-016 -5.12864e-014 1.62755e-015
rShldr  -89.3782 33.75 -39.632
rForeArm  -41.489 -0.59092 107.173
rHand  -2.08914 -20.5275 14.9537
lThigh  -3.00176 13.7996 -13.8473
lShin  -21.0066 2.77337 -8.96469
lFoot  11.4433 -1.74132 4.5112
rThigh  7.30531 -2.4445 -15.9557
rShin  1.82879 26.0901 -2.32391
rFoot  4.59187 -0.30211 5.86529
1291
root  1.55556 35.8022 3.55897 173.479 7.26651 79.5835
abdomen  -2.97993 -16.1804 7.62085
chest  -0.16904 14.8503 -25.3362
neckDummy  9.09964e-021 0 8.72668e-016
neck  5.96717 19.7224 -4.42362
head  1.26949 -5.76155 -10.3794
figureHair  0 1.51661e-021 -9.5315e-016
lCollar  -5.15695e-016 -6.42944e-016 -7.59357e-014
lShldr  56.9933 29.0911 -37.5655
lForeArm  -111.026 -72.0648 172.105
lHand  0.254698 0.195082 5.2986
rCollar  1.7976e-016 -5.12864e-014 1.62755e-015
rShldr  -90.0827 33.6216 -40.1793
rForeArm  -41.5563 -0.589416 107.141
rHand  -2.14065 -20.4891 15.2284
lThigh  -1.56231 12.1217 -15.8463
lShin  -23.401 1.16945 -9.93719
lFoot  12.7935 -1.89055 4.00929
rThigh  5.00169 -7.13318 -17.8365
rShin  3.54893 28.9478 -1.88526
rFoot  4.38732 -0.265481 5.89063
1292
root  1.92838 35.688 4.06848 172.46 8.25157 81.1912
abdomen  -3.23647 -18.0286 5.77454
chest  -0.205933 15.7225 -23.8524
neckDummy  9.09964e-021 0 8.72668e-016
neck  6.9019 21.5403 -1.21058
head  1.16363 -5.4496 -11.7488
figureHair  0 1.51661e-021 -9.5315e-016
lCollar  -5.15695e-016 -6.42944e-016 -7.59357e-014
lShldr  56.6921 29.5613 -37.906
lForeArm  -110.975 -72.6553 171.868
lHand  0.254698 0.195082 5.2986
rCollar  1.7976e-016 -5.12864e-014 1.62755e-015
rShldr  -90.7165 33.552 -40.6419
rForeArm  -40.9769 -0.587564 107.09
rHand  -2.16105 -20.6506 15.2558
lThigh  -0.289862 9.95976 -17.3776
lShin  -25.5324 0.152874 -10.6632
lFoot  13.7222 -1.98423 3.64346
rThigh  4.08105 -11.4987 -19.2181
rShin  4.04818 31.0016 -1.93426
rFoot  3.77048 -0.175422 5.55855
1293
root  2.33723 35.6005 4.49729 171.65 9.08017 82.9883
abdomen  -3.34844 -19.4623 3.87623
chest  -0.260292 16.1324 -22.3209
neckDummy  9.09964e-021 0 8.72668e-016
neck  7.79168 23.1467 1.63545
head  1.00458 -5.02247 -12.586
figureHair  0 1.51661e-021 -9.5315e-016
lCollar  -5.15695e-016 -6.42944e-016 -7.59357e-014
lShldr  56.4563 30.0273 -38.2732
lForeArm  -110.76 -73.2643 171.606
lHand  0.254698 0.195082 5.2986
rCollar  1.7976e-016 -5.12864e-014 1.62755e-015
rShldr  -91.1539 33.4754 -41.0371
rForeArm  -40.8113 -0.585805 107.043
rHand  -2.17262 -20.8135 15.2381
lThigh  0.849578 7.61121 -18.5188
lShin  -27.1765 -0.903168 -11.1607
lFoot  14.3844 -2.01792 3.15436
rThigh  3.64921 -15.4398 -20.3332
rShin  4.23642 32.1022 -1.96054
rFoot  3.52007 -0.1701 4.8594
